<svg xmlns="http://www.w3.org/2000/svg" xmlns:xlink="http://www.w3.org/1999/xlink" width="230" height="80" viewBox="0 0 230 80">
  <defs>
    <clipPath id="clip-path">
      <rect id="Rectangle_13" data-name="Rectangle 13" width="225.596" height="71.668" fill="none"/>
    </clipPath>
    <clipPath id="clip-path-2">
      <rect id="Rectangle_11" data-name="Rectangle 11" width="73.365" height="71.668" fill="none"/>
    </clipPath>
  </defs>
  <g id="Group_31" data-name="Group 31" transform="translate(-555 -2572)">
    <g id="Group_30" data-name="Group 30" transform="translate(555 2572)">
      <g id="Logo">
        <rect id="Rectangle_14" data-name="Rectangle 14" width="230" height="80" fill="none"/>
        <g id="Group_4716" data-name="Group 4716" transform="translate(2 4)">
          <g id="Group_9" data-name="Group 9" clip-path="url(#clip-path)">
            <g id="Group_8" data-name="Group 8">
              <g id="Group_4717" data-name="Group 4717">
                <g id="Group_6" data-name="Group 6" transform="translate(152.231)" opacity="0.25" style="isolation: isolate">
                  <g id="Group_5" data-name="Group 5">
                    <g id="Group_4" data-name="Group 4" clip-path="url(#clip-path-2)">
                      <path id="Path_19" data-name="Path 19" d="M551.71,71.669c-15.976,0-30.823-9.818-35.846-25.116l3.379-1.01c5.606,17.072,24.72,26.609,42.608,21.26s27.883-23.589,22.278-40.661A32.656,32.656,0,0,0,567.44,7.09a35.236,35.236,0,0,0-25.918-2.209,33.272,33.272,0,0,0-22.279,21.26l-3.379-1.01a36.738,36.738,0,0,1,24.6-23.474A38.908,38.908,0,0,1,569.08,4.1a36.057,36.057,0,0,1,18.429,21.035c6.188,18.85-4.846,38.99-24.6,44.9a39.069,39.069,0,0,1-11.2,1.642" transform="translate(-515.864 0)" fill="#1f95d9"/>
                    </g>
                  </g>
                </g>
                <path id="Path_20" data-name="Path 20" d="M459.625,96.867a11.905,11.905,0,0,0,8.044,3.168c3.541,0,5.509-1.459,5.509-3.588,0-2.253-1.791-3.295-5.858-3.295-1.225,0-3.193,0-3.63.042V88.019c.525.042,2.535.042,3.63.042,3.246,0,5.377-1,5.377-3.1,0-2.211-2.361-3.34-5.421-3.34a10.911,10.911,0,0,0-7.434,2.923l-3.06-3.661c2.361-2.534,6.035-4.424,11.149-4.424,6.823,0,11.019,2.92,11.019,7.553,0,3.506-3.149,5.8-6.383,6.342,2.972.282,6.82,2.5,6.82,6.677,0,4.787-4.5,8.167-11.509,8.167-5.377,0-9.355-1.971-11.509-4.466Z" transform="translate(-321.696 -54.93)" fill="#1f95d9"/>
                <path id="Path_21" data-name="Path 21" d="M566.488,76.462a13.544,13.544,0,0,1,8.614,2.881l-2.8,4.464a8.024,8.024,0,0,0-5.816-2.211c-4.427,0-7.3,3.63-7.3,8.051a2.615,2.615,0,0,0,.041.586,9.61,9.61,0,0,1,7.478-3.548c5.247,0,9.924,3.047,9.924,8.972,0,5.424-4.5,9.555-11.149,9.555-8.877,0-12.592-6.511-12.592-14.362,0-8.42,4.984-14.387,13.6-14.387m-1.573,15.153a7.617,7.617,0,0,0-5.687,2.67c.263,2.67,1.839,5.756,5.949,5.756,3.364,0,5.158-2.168,5.158-4.128,0-3.01-2.579-4.3-5.421-4.3" transform="translate(-389.733 -54.93)" fill="#1f95d9"/>
                <path id="Path_22" data-name="Path 22" d="M662.447,76.462c8.31,0,12.069,7.178,12.069,14.362s-3.76,14.4-12.069,14.4S650.38,98,650.38,90.824s3.718-14.362,12.067-14.362m0,5.258c-4.2,0-5.769,3.965-5.769,9.1s1.573,9.138,5.769,9.138,5.728-4,5.728-9.138-1.573-9.1-5.728-9.1" transform="translate(-458.454 -54.93)" fill="#1f95d9"/>
                <path id="Path_23" data-name="Path 23" d="M108.63,83.552h5.495v20.008h10.919v4.616H108.63Z" transform="translate(-76.573 -60.023)" fill="#323180"/>
                <path id="Path_24" data-name="Path 24" d="M181.96,83.552h18.261v4.506H187.455v5.351h12.494v4.506H187.455v5.722h12.766v4.54H181.96Z" transform="translate(-128.264 -60.023)" fill="#323180"/>
                <path id="Path_25" data-name="Path 25" d="M268.655,91.64v16.539H263.16V83.552h5.648L280.763,99.5V83.552h5.495v24.624h-5.291Z" transform="translate(-185.502 -60.023)" fill="#323180"/>
                <path id="Path_26" data-name="Path 26" d="M359.33,83.552h10.175c8.086,0,13.7,4.908,13.7,12.332s-5.607,12.292-13.7,12.292H359.33Zm10.175,20.008c5.108,0,8.086-3.506,8.086-7.677,0-4.359-2.786-7.719-8.086-7.719h-4.68v15.4Z" transform="translate(-253.292 -60.023)" fill="#323180"/>
                <path id="Path_27" data-name="Path 27" d="M27.977,95.475a5.514,5.514,0,0,0,4.45-5.649c0-3.284-2.514-6.274-7.431-6.274H8.5l2.924,3.188v21.436H25.43c4.913,0,7.5-2.954,7.5-6.643a6.037,6.037,0,0,0-4.958-6.057M16.91,88.018H23.8a2.729,2.729,0,1,1,0,5.427H16.916Zm7.082,15.691H16.91v-5.8h7.082c2.166,0,3.326,1.329,3.326,2.878.006,1.774-1.234,2.917-3.32,2.917Z" transform="translate(-5.992 -60.023)" fill="#323180"/>
                <path id="Path_28" data-name="Path 28" d="M10.759,83.552H0l10.759,9.893Z" transform="translate(0 -60.023)" fill="#52bae8"/>
                <path id="Path_29" data-name="Path 29" d="M11.319,83.552H.56l10.759,9.893Z" transform="translate(-0.395 -60.023)" fill="#1f95d9"/>
              </g>
            </g>
          </g>
        </g>
      </g>
    </g>
  </g>
</svg>
